<svg id="visual" viewBox="0 0 900 600" width="900" height="600" xmlns="http://www.w3.org/2000/svg" xmlns:xlink="http://www.w3.org/1999/xlink" version="1.1"><path d="M0 357L8.3 354C16.7 351 33.3 345 50 350.7C66.7 356.3 83.3 373.7 100 384C116.7 394.3 133.3 397.7 150 399C166.7 400.3 183.3 399.7 200 393.8C216.7 388 233.3 377 250 374.7C266.7 372.3 283.3 378.7 300 381.7C316.7 384.7 333.3 384.3 350 384.2C366.7 384 383.3 384 400 381.2C416.7 378.3 433.3 372.7 450 372.2C466.7 371.7 483.3 376.3 500 379.2C516.7 382 533.3 383 550 378.7C566.7 374.3 583.3 364.7 600 362.8C616.7 361 633.3 367 650 365C666.7 363 683.3 353 700 347.8C716.7 342.7 733.3 342.3 750 351.7C766.7 361 783.3 380 800 381.3C816.7 382.7 833.3 366.3 850 357C866.7 347.7 883.3 345.3 891.7 344.2L900 343L900 601L891.7 601C883.3 601 866.7 601 850 601C833.3 601 816.7 601 800 601C783.3 601 766.7 601 750 601C733.3 601 716.7 601 700 601C683.3 601 666.7 601 650 601C633.3 601 616.7 601 600 601C583.3 601 566.7 601 550 601C533.3 601 516.7 601 500 601C483.3 601 466.7 601 450 601C433.3 601 416.7 601 400 601C383.3 601 366.7 601 350 601C333.3 601 316.7 601 300 601C283.3 601 266.7 601 250 601C233.3 601 216.7 601 200 601C183.3 601 166.7 601 150 601C133.3 601 116.7 601 100 601C83.3 601 66.7 601 50 601C33.3 601 16.7 601 8.3 601L0 601Z" fill="#4b79f1"></path><path d="M0 417L8.3 414.2C16.7 411.3 33.3 405.7 50 401C66.7 396.3 83.3 392.7 100 396.3C116.7 400 133.3 411 150 418.3C166.7 425.7 183.3 429.3 200 426C216.7 422.7 233.3 412.3 250 413.5C266.7 414.7 283.3 427.3 300 429.7C316.7 432 333.3 424 350 422.5C366.7 421 383.3 426 400 421.8C416.7 417.7 433.3 404.3 450 402C466.7 399.7 483.3 408.3 500 412.8C516.7 417.3 533.3 417.7 550 412C566.7 406.3 583.3 394.7 600 394C616.7 393.3 633.3 403.7 650 405C666.7 406.3 683.3 398.7 700 398.2C716.7 397.7 733.3 404.3 750 404.7C766.7 405 783.3 399 800 399.2C816.7 399.3 833.3 405.7 850 411.3C866.7 417 883.3 422 891.7 424.5L900 427L900 601L891.7 601C883.3 601 866.7 601 850 601C833.3 601 816.7 601 800 601C783.3 601 766.7 601 750 601C733.3 601 716.7 601 700 601C683.3 601 666.7 601 650 601C633.3 601 616.7 601 600 601C583.3 601 566.7 601 550 601C533.3 601 516.7 601 500 601C483.3 601 466.7 601 450 601C433.3 601 416.7 601 400 601C383.3 601 366.7 601 350 601C333.3 601 316.7 601 300 601C283.3 601 266.7 601 250 601C233.3 601 216.7 601 200 601C183.3 601 166.7 601 150 601C133.3 601 116.7 601 100 601C83.3 601 66.7 601 50 601C33.3 601 16.7 601 8.3 601L0 601Z" fill="#3e67e8"></path><path d="M0 430L8.3 430.5C16.7 431 33.3 432 50 440C66.7 448 83.3 463 100 463.2C116.7 463.3 133.3 448.7 150 442.7C166.7 436.7 183.3 439.3 200 441.2C216.7 443 233.3 444 250 443.5C266.7 443 283.3 441 300 446.3C316.7 451.7 333.3 464.3 350 463.7C366.7 463 383.3 449 400 442.7C416.7 436.3 433.3 437.7 450 442.3C466.7 447 483.3 455 500 455.3C516.7 455.7 533.3 448.3 550 447.8C566.7 447.3 583.3 453.7 600 455.7C616.7 457.7 633.3 455.3 650 453.3C666.7 451.3 683.3 449.7 700 450.5C716.7 451.3 733.3 454.7 750 461C766.7 467.3 783.3 476.7 800 474.8C816.7 473 833.3 460 850 454.2C866.7 448.3 883.3 449.7 891.7 450.3L900 451L900 601L891.7 601C883.3 601 866.7 601 850 601C833.3 601 816.7 601 800 601C783.3 601 766.7 601 750 601C733.3 601 716.7 601 700 601C683.3 601 666.7 601 650 601C633.3 601 616.7 601 600 601C583.3 601 566.7 601 550 601C533.3 601 516.7 601 500 601C483.3 601 466.7 601 450 601C433.3 601 416.7 601 400 601C383.3 601 366.7 601 350 601C333.3 601 316.7 601 300 601C283.3 601 266.7 601 250 601C233.3 601 216.7 601 200 601C183.3 601 166.7 601 150 601C133.3 601 116.7 601 100 601C83.3 601 66.7 601 50 601C33.3 601 16.7 601 8.3 601L0 601Z" fill="#3355de"></path><path d="M0 504L8.3 506.3C16.7 508.7 33.3 513.3 50 515.3C66.7 517.3 83.3 516.7 100 511.8C116.7 507 133.3 498 150 492C166.7 486 183.3 483 200 484.7C216.7 486.3 233.3 492.7 250 492.3C266.7 492 283.3 485 300 482.2C316.7 479.3 333.3 480.7 350 480.7C366.7 480.7 383.3 479.3 400 483.2C416.7 487 433.3 496 450 503C466.7 510 483.3 515 500 515C516.7 515 533.3 510 550 503.3C566.7 496.7 583.3 488.3 600 483.7C616.7 479 633.3 478 650 479C666.7 480 683.3 483 700 490C716.7 497 733.3 508 750 511.7C766.7 515.3 783.3 511.7 800 511C816.7 510.3 833.3 512.7 850 509.2C866.7 505.7 883.3 496.3 891.7 491.7L900 487L900 601L891.7 601C883.3 601 866.7 601 850 601C833.3 601 816.7 601 800 601C783.3 601 766.7 601 750 601C733.3 601 716.7 601 700 601C683.3 601 666.7 601 650 601C633.3 601 616.7 601 600 601C583.3 601 566.7 601 550 601C533.3 601 516.7 601 500 601C483.3 601 466.7 601 450 601C433.3 601 416.7 601 400 601C383.3 601 366.7 601 350 601C333.3 601 316.7 601 300 601C283.3 601 266.7 601 250 601C233.3 601 216.7 601 200 601C183.3 601 166.7 601 150 601C133.3 601 116.7 601 100 601C83.3 601 66.7 601 50 601C33.3 601 16.7 601 8.3 601L0 601Z" fill="#2a42d3"></path><path d="M0 568L8.3 562C16.7 556 33.3 544 50 536.8C66.7 529.7 83.3 527.3 100 534.2C116.7 541 133.3 557 150 562C166.7 567 183.3 561 200 559.8C216.7 558.7 233.3 562.3 250 560.8C266.7 559.3 283.3 552.7 300 551.7C316.7 550.7 333.3 555.3 350 559.5C366.7 563.7 383.3 567.3 400 569.3C416.7 571.3 433.3 571.7 450 571.8C466.7 572 483.3 572 500 565C516.7 558 533.3 544 550 539.2C566.7 534.3 583.3 538.7 600 543.2C616.7 547.7 633.3 552.3 650 550.5C666.7 548.7 683.3 540.3 700 539.2C716.7 538 733.3 544 750 545.5C766.7 547 783.3 544 800 543C816.7 542 833.3 543 850 547.8C866.7 552.7 883.3 561.3 891.7 565.7L900 570L900 601L891.7 601C883.3 601 866.7 601 850 601C833.3 601 816.7 601 800 601C783.3 601 766.7 601 750 601C733.3 601 716.7 601 700 601C683.3 601 666.7 601 650 601C633.3 601 616.7 601 600 601C583.3 601 566.7 601 550 601C533.3 601 516.7 601 500 601C483.3 601 466.7 601 450 601C433.3 601 416.7 601 400 601C383.3 601 366.7 601 350 601C333.3 601 316.7 601 300 601C283.3 601 266.7 601 250 601C233.3 601 216.7 601 200 601C183.3 601 166.7 601 150 601C133.3 601 116.7 601 100 601C83.3 601 66.7 601 50 601C33.3 601 16.7 601 8.3 601L0 601Z" fill="#242ec7"></path></svg>