<svg id="visual" viewBox="0 0 900 600" width="900" height="600" xmlns="http://www.w3.org/2000/svg" xmlns:xlink="http://www.w3.org/1999/xlink" version="1.1"><path d="M0 351L6.8 357.5C13.7 364 27.3 377 41 379.3C54.7 381.7 68.3 373.3 82 367.2C95.7 361 109.3 357 123 351.2C136.7 345.3 150.3 337.7 164 336.2C177.7 334.7 191.3 339.3 204.8 349.7C218.3 360 231.7 376 245.2 379.8C258.7 383.7 272.3 375.3 286 363C299.7 350.7 313.3 334.3 327 335.7C340.7 337 354.3 356 368 363.2C381.7 370.3 395.3 365.7 409 359.7C422.7 353.7 436.3 346.3 450 346.3C463.7 346.3 477.3 353.7 491 356.3C504.7 359 518.3 357 532 349C545.7 341 559.3 327 573 325C586.7 323 600.3 333 614 335.8C627.7 338.7 641.3 334.3 654.8 328.5C668.3 322.7 681.7 315.3 695.2 315.2C708.7 315 722.3 322 736 321.8C749.7 321.7 763.3 314.3 777 324C790.7 333.7 804.3 360.3 818 373.8C831.7 387.3 845.3 387.7 859 383.7C872.7 379.7 886.3 371.3 893.2 367.2L900 363L900 601L893.2 601C886.3 601 872.7 601 859 601C845.3 601 831.7 601 818 601C804.3 601 790.7 601 777 601C763.3 601 749.7 601 736 601C722.3 601 708.7 601 695.2 601C681.7 601 668.3 601 654.8 601C641.3 601 627.7 601 614 601C600.3 601 586.7 601 573 601C559.3 601 545.7 601 532 601C518.3 601 504.7 601 491 601C477.3 601 463.7 601 450 601C436.3 601 422.7 601 409 601C395.3 601 381.7 601 368 601C354.3 601 340.7 601 327 601C313.3 601 299.7 601 286 601C272.3 601 258.7 601 245.2 601C231.7 601 218.3 601 204.8 601C191.3 601 177.7 601 164 601C150.3 601 136.7 601 123 601C109.3 601 95.7 601 82 601C68.3 601 54.7 601 41 601C27.3 601 13.7 601 6.8 601L0 601Z" fill="#2424c7"></path><path d="M0 423L6.8 424.8C13.7 426.7 27.3 430.3 41 420.7C54.7 411 68.3 388 82 385.2C95.7 382.3 109.3 399.7 123 406.8C136.7 414 150.3 411 164 409C177.7 407 191.3 406 204.8 409.7C218.3 413.3 231.7 421.7 245.2 418.2C258.7 414.7 272.3 399.3 286 397.8C299.7 396.3 313.3 408.7 327 412.5C340.7 416.3 354.3 411.7 368 410.5C381.7 409.3 395.3 411.7 409 416.8C422.7 422 436.3 430 450 426.5C463.7 423 477.3 408 491 405.7C504.7 403.3 518.3 413.7 532 420.3C545.7 427 559.3 430 573 430.8C586.7 431.7 600.3 430.3 614 429.8C627.7 429.3 641.3 429.7 654.8 424.3C668.3 419 681.7 408 695.2 397.8C708.7 387.7 722.3 378.3 736 375.7C749.7 373 763.3 377 777 375C790.7 373 804.3 365 818 361.5C831.7 358 845.3 359 859 363.3C872.7 367.7 886.3 375.3 893.2 379.2L900 383L900 601L893.2 601C886.3 601 872.7 601 859 601C845.3 601 831.7 601 818 601C804.3 601 790.7 601 777 601C763.3 601 749.7 601 736 601C722.3 601 708.7 601 695.2 601C681.7 601 668.3 601 654.8 601C641.3 601 627.7 601 614 601C600.3 601 586.7 601 573 601C559.3 601 545.7 601 532 601C518.3 601 504.7 601 491 601C477.3 601 463.7 601 450 601C436.3 601 422.7 601 409 601C395.3 601 381.7 601 368 601C354.3 601 340.7 601 327 601C313.3 601 299.7 601 286 601C272.3 601 258.7 601 245.2 601C231.7 601 218.3 601 204.8 601C191.3 601 177.7 601 164 601C150.3 601 136.7 601 123 601C109.3 601 95.7 601 82 601C68.3 601 54.7 601 41 601C27.3 601 13.7 601 6.8 601L0 601Z" fill="#3b36d4"></path><path d="M0 469L6.8 468.5C13.7 468 27.3 467 41 464.7C54.7 462.3 68.3 458.7 82 449.7C95.7 440.7 109.3 426.3 123 420.5C136.7 414.7 150.3 417.3 164 424.3C177.7 431.3 191.3 442.7 204.8 444.7C218.3 446.7 231.7 439.3 245.2 433.2C258.7 427 272.3 422 286 428.8C299.7 435.7 313.3 454.3 327 460C340.7 465.7 354.3 458.3 368 461.2C381.7 464 395.3 477 409 480.3C422.7 483.7 436.3 477.3 450 471C463.7 464.7 477.3 458.3 491 449.5C504.7 440.7 518.3 429.3 532 432.2C545.7 435 559.3 452 573 452.8C586.7 453.7 600.3 438.3 614 440.7C627.7 443 641.3 463 654.8 460.7C668.3 458.3 681.7 433.7 695.2 421.3C708.7 409 722.3 409 736 413.3C749.7 417.7 763.3 426.3 777 429.5C790.7 432.7 804.3 430.3 818 428.2C831.7 426 845.3 424 859 431.5C872.7 439 886.3 456 893.2 464.5L900 473L900 601L893.2 601C886.3 601 872.7 601 859 601C845.3 601 831.7 601 818 601C804.3 601 790.7 601 777 601C763.3 601 749.7 601 736 601C722.3 601 708.7 601 695.2 601C681.7 601 668.3 601 654.8 601C641.3 601 627.7 601 614 601C600.3 601 586.7 601 573 601C559.3 601 545.7 601 532 601C518.3 601 504.7 601 491 601C477.3 601 463.7 601 450 601C436.3 601 422.7 601 409 601C395.3 601 381.7 601 368 601C354.3 601 340.7 601 327 601C313.3 601 299.7 601 286 601C272.3 601 258.7 601 245.2 601C231.7 601 218.3 601 204.8 601C191.3 601 177.7 601 164 601C150.3 601 136.7 601 123 601C109.3 601 95.7 601 82 601C68.3 601 54.7 601 41 601C27.3 601 13.7 601 6.8 601L0 601Z" fill="#4d47e1"></path><path d="M0 479L6.8 475.8C13.7 472.7 27.3 466.3 41 474.2C54.7 482 68.3 504 82 516C95.7 528 109.3 530 123 520.5C136.7 511 150.3 490 164 488.3C177.7 486.7 191.3 504.3 204.8 516.7C218.3 529 231.7 536 245.2 527C258.7 518 272.3 493 286 488.7C299.7 484.3 313.3 500.7 327 505.2C340.7 509.7 354.3 502.3 368 493.3C381.7 484.3 395.3 473.7 409 475.3C422.7 477 436.3 491 450 491.7C463.7 492.3 477.3 479.7 491 479.3C504.7 479 518.3 491 532 503.5C545.7 516 559.3 529 573 529.7C586.7 530.3 600.3 518.7 614 506.5C627.7 494.3 641.3 481.7 654.8 486.8C668.3 492 681.7 515 695.2 516.7C708.7 518.3 722.3 498.7 736 489.5C749.7 480.3 763.3 481.7 777 477.5C790.7 473.3 804.3 463.7 818 466.3C831.7 469 845.3 484 859 494.3C872.7 504.7 886.3 510.3 893.2 513.2L900 516L900 601L893.2 601C886.3 601 872.7 601 859 601C845.3 601 831.7 601 818 601C804.3 601 790.7 601 777 601C763.3 601 749.7 601 736 601C722.3 601 708.7 601 695.2 601C681.7 601 668.3 601 654.8 601C641.3 601 627.7 601 614 601C600.3 601 586.7 601 573 601C559.3 601 545.7 601 532 601C518.3 601 504.7 601 491 601C477.3 601 463.7 601 450 601C436.3 601 422.7 601 409 601C395.3 601 381.7 601 368 601C354.3 601 340.7 601 327 601C313.3 601 299.7 601 286 601C272.3 601 258.7 601 245.2 601C231.7 601 218.3 601 204.8 601C191.3 601 177.7 601 164 601C150.3 601 136.7 601 123 601C109.3 601 95.7 601 82 601C68.3 601 54.7 601 41 601C27.3 601 13.7 601 6.8 601L0 601Z" fill="#5d58ee"></path><path d="M0 543L6.8 537.7C13.7 532.3 27.3 521.7 41 518.7C54.7 515.7 68.3 520.3 82 529.5C95.7 538.7 109.3 552.3 123 549.2C136.7 546 150.3 526 164 527C177.7 528 191.3 550 204.8 562.5C218.3 575 231.7 578 245.2 570.2C258.7 562.3 272.3 543.7 286 534.2C299.7 524.7 313.3 524.3 327 534.3C340.7 544.3 354.3 564.7 368 570.3C381.7 576 395.3 567 409 564.3C422.7 561.7 436.3 565.3 450 563.3C463.7 561.3 477.3 553.7 491 543.8C504.7 534 518.3 522 532 526C545.7 530 559.3 550 573 550.8C586.7 551.7 600.3 533.3 614 537.2C627.7 541 641.3 567 654.8 568.7C668.3 570.3 681.7 547.7 695.2 543.7C708.7 539.7 722.3 554.3 736 562.2C749.7 570 763.3 571 777 567.5C790.7 564 804.3 556 818 554C831.7 552 845.3 556 859 557.8C872.7 559.7 886.3 559.3 893.2 559.2L900 559L900 601L893.2 601C886.3 601 872.7 601 859 601C845.3 601 831.7 601 818 601C804.3 601 790.7 601 777 601C763.3 601 749.7 601 736 601C722.3 601 708.7 601 695.2 601C681.7 601 668.3 601 654.8 601C641.3 601 627.7 601 614 601C600.3 601 586.7 601 573 601C559.3 601 545.7 601 532 601C518.3 601 504.7 601 491 601C477.3 601 463.7 601 450 601C436.3 601 422.7 601 409 601C395.3 601 381.7 601 368 601C354.3 601 340.7 601 327 601C313.3 601 299.7 601 286 601C272.3 601 258.7 601 245.2 601C231.7 601 218.3 601 204.8 601C191.3 601 177.7 601 164 601C150.3 601 136.7 601 123 601C109.3 601 95.7 601 82 601C68.3 601 54.7 601 41 601C27.3 601 13.7 601 6.8 601L0 601Z" fill="#6d69fa"></path></svg>