<svg id="visual" viewBox="0 0 900 600" width="900" height="600" xmlns="http://www.w3.org/2000/svg" xmlns:xlink="http://www.w3.org/1999/xlink" version="1.1"><path d="M0 386L21.5 385.5C43 385 86 384 128.8 385.3C171.7 386.7 214.3 390.3 257.2 385.7C300 381 343 368 385.8 375.7C428.7 383.3 471.3 411.7 514.2 410.8C557 410 600 380 642.8 378.8C685.7 377.7 728.3 405.3 771.2 418.2C814 431 857 429 878.5 428L900 427L900 601L878.5 601C857 601 814 601 771.2 601C728.3 601 685.7 601 642.8 601C600 601 557 601 514.2 601C471.3 601 428.7 601 385.8 601C343 601 300 601 257.2 601C214.3 601 171.7 601 128.8 601C86 601 43 601 21.5 601L0 601Z" fill="#f72a88"></path><path d="M0 458L21.5 460.2C43 462.3 86 466.7 128.8 461.3C171.7 456 214.3 441 257.2 428.3C300 415.7 343 405.3 385.8 404.8C428.7 404.3 471.3 413.7 514.2 427.7C557 441.7 600 460.3 642.8 458.5C685.7 456.7 728.3 434.3 771.2 433.7C814 433 857 454 878.5 464.5L900 475L900 601L878.5 601C857 601 814 601 771.2 601C728.3 601 685.7 601 642.8 601C600 601 557 601 514.2 601C471.3 601 428.7 601 385.8 601C343 601 300 601 257.2 601C214.3 601 171.7 601 128.8 601C86 601 43 601 21.5 601L0 601Z" fill="#e12fa5"></path><path d="M0 440L21.5 445.3C43 450.7 86 461.3 128.8 461.3C171.7 461.3 214.3 450.7 257.2 457C300 463.3 343 486.7 385.8 494.3C428.7 502 471.3 494 514.2 486.3C557 478.7 600 471.3 642.8 463.7C685.7 456 728.3 448 771.2 454.7C814 461.3 857 482.7 878.5 493.3L900 504L900 601L878.5 601C857 601 814 601 771.2 601C728.3 601 685.7 601 642.8 601C600 601 557 601 514.2 601C471.3 601 428.7 601 385.8 601C343 601 300 601 257.2 601C214.3 601 171.7 601 128.8 601C86 601 43 601 21.5 601L0 601Z" fill="#bf3fbf"></path><path d="M0 490L21.5 490.5C43 491 86 492 128.8 495.7C171.7 499.3 214.3 505.7 257.2 506.3C300 507 343 502 385.8 497.8C428.7 493.7 471.3 490.3 514.2 493.8C557 497.3 600 507.7 642.8 509.3C685.7 511 728.3 504 771.2 507.8C814 511.7 857 526.3 878.5 533.7L900 541L900 601L878.5 601C857 601 814 601 771.2 601C728.3 601 685.7 601 642.8 601C600 601 557 601 514.2 601C471.3 601 428.7 601 385.8 601C343 601 300 601 257.2 601C214.3 601 171.7 601 128.8 601C86 601 43 601 21.5 601L0 601Z" fill="#8f50d3"></path><path d="M0 560L21.5 557.8C43 555.7 86 551.3 128.8 546.2C171.7 541 214.3 535 257.2 534.8C300 534.7 343 540.3 385.8 541.8C428.7 543.3 471.3 540.7 514.2 545C557 549.3 600 560.7 642.8 558.5C685.7 556.3 728.3 540.7 771.2 540.7C814 540.7 857 556.3 878.5 564.2L900 572L900 601L878.5 601C857 601 814 601 771.2 601C728.3 601 685.7 601 642.8 601C600 601 557 601 514.2 601C471.3 601 428.7 601 385.8 601C343 601 300 601 257.2 601C214.3 601 171.7 601 128.8 601C86 601 43 601 21.5 601L0 601Z" fill="#405de0"></path></svg>