<svg id="visual" viewBox="0 0 960 540" width="960" height="540" xmlns="http://www.w3.org/2000/svg" xmlns:xlink="http://www.w3.org/1999/xlink" version="1.1"><path d="M0 273L12.3 272.7C24.7 272.3 49.3 271.7 74 280.7C98.7 289.7 123.3 308.3 148 311.5C172.7 314.7 197.3 302.3 221.8 294.7C246.3 287 270.7 284 295.2 286.3C319.7 288.7 344.3 296.3 369 292.7C393.7 289 418.3 274 443 269.2C467.7 264.3 492.3 269.7 517 282.3C541.7 295 566.3 315 591 314.2C615.7 313.3 640.3 291.7 664.8 278.3C689.3 265 713.7 260 738.2 263.7C762.7 267.3 787.3 279.7 812 289.7C836.7 299.7 861.3 307.3 886 302.5C910.7 297.7 935.3 280.3 947.7 271.7L960 263L960 541L947.7 541C935.3 541 910.7 541 886 541C861.3 541 836.7 541 812 541C787.3 541 762.7 541 738.2 541C713.7 541 689.3 541 664.8 541C640.3 541 615.7 541 591 541C566.3 541 541.7 541 517 541C492.3 541 467.7 541 443 541C418.3 541 393.7 541 369 541C344.3 541 319.7 541 295.2 541C270.7 541 246.3 541 221.8 541C197.3 541 172.7 541 148 541C123.3 541 98.7 541 74 541C49.3 541 24.7 541 12.3 541L0 541Z" fill="#fa7acc"></path><path d="M0 344L12.3 350.2C24.7 356.3 49.3 368.7 74 372.5C98.7 376.3 123.3 371.7 148 365.2C172.7 358.7 197.3 350.3 221.8 342.8C246.3 335.3 270.7 328.7 295.2 326C319.7 323.3 344.3 324.7 369 321C393.7 317.3 418.3 308.7 443 303.8C467.7 299 492.3 298 517 301.7C541.7 305.3 566.3 313.7 591 324.7C615.7 335.7 640.3 349.3 664.8 353.7C689.3 358 713.7 353 738.2 352.5C762.7 352 787.3 356 812 348.5C836.7 341 861.3 322 886 326.5C910.7 331 935.3 359 947.7 373L960 387L960 541L947.7 541C935.3 541 910.7 541 886 541C861.3 541 836.7 541 812 541C787.3 541 762.7 541 738.2 541C713.7 541 689.3 541 664.8 541C640.3 541 615.7 541 591 541C566.3 541 541.7 541 517 541C492.3 541 467.7 541 443 541C418.3 541 393.7 541 369 541C344.3 541 319.7 541 295.2 541C270.7 541 246.3 541 221.8 541C197.3 541 172.7 541 148 541C123.3 541 98.7 541 74 541C49.3 541 24.7 541 12.3 541L0 541Z" fill="#e96ad3"></path><path d="M0 404L12.3 404C24.7 404 49.3 404 74 400.8C98.7 397.7 123.3 391.3 148 389.3C172.7 387.3 197.3 389.7 221.8 394.5C246.3 399.3 270.7 406.7 295.2 411.3C319.7 416 344.3 418 369 415.3C393.7 412.7 418.3 405.3 443 400.5C467.7 395.7 492.3 393.3 517 390.5C541.7 387.7 566.3 384.3 591 387C615.7 389.7 640.3 398.3 664.8 399C689.3 399.7 713.7 392.3 738.2 383.7C762.7 375 787.3 365 812 365.2C836.7 365.3 861.3 375.7 886 375.8C910.7 376 935.3 366 947.7 361L960 356L960 541L947.7 541C935.3 541 910.7 541 886 541C861.3 541 836.7 541 812 541C787.3 541 762.7 541 738.2 541C713.7 541 689.3 541 664.8 541C640.3 541 615.7 541 591 541C566.3 541 541.7 541 517 541C492.3 541 467.7 541 443 541C418.3 541 393.7 541 369 541C344.3 541 319.7 541 295.2 541C270.7 541 246.3 541 221.8 541C197.3 541 172.7 541 148 541C123.3 541 98.7 541 74 541C49.3 541 24.7 541 12.3 541L0 541Z" fill="#d35cdc"></path><path d="M0 397L12.3 399.3C24.7 401.7 49.3 406.3 74 405.3C98.7 404.3 123.3 397.7 148 397.2C172.7 396.7 197.3 402.3 221.8 405.5C246.3 408.7 270.7 409.3 295.2 416.8C319.7 424.3 344.3 438.7 369 445.2C393.7 451.7 418.3 450.3 443 450C467.7 449.7 492.3 450.3 517 448C541.7 445.7 566.3 440.3 591 441.3C615.7 442.3 640.3 449.7 664.8 452.5C689.3 455.3 713.7 453.7 738.2 444C762.7 434.3 787.3 416.7 812 408.8C836.7 401 861.3 403 886 407.7C910.7 412.3 935.3 419.7 947.7 423.3L960 427L960 541L947.7 541C935.3 541 910.7 541 886 541C861.3 541 836.7 541 812 541C787.3 541 762.7 541 738.2 541C713.7 541 689.3 541 664.8 541C640.3 541 615.7 541 591 541C566.3 541 541.7 541 517 541C492.3 541 467.7 541 443 541C418.3 541 393.7 541 369 541C344.3 541 319.7 541 295.2 541C270.7 541 246.3 541 221.8 541C197.3 541 172.7 541 148 541C123.3 541 98.7 541 74 541C49.3 541 24.7 541 12.3 541L0 541Z" fill="#b553e6"></path><path d="M0 484L12.3 480.3C24.7 476.7 49.3 469.3 74 462.5C98.7 455.7 123.3 449.3 148 444.7C172.7 440 197.3 437 221.8 444.5C246.3 452 270.7 470 295.2 478.5C319.7 487 344.3 486 369 476.7C393.7 467.3 418.3 449.7 443 446C467.7 442.3 492.3 452.7 517 461.3C541.7 470 566.3 477 591 476.2C615.7 475.3 640.3 466.7 664.8 459.5C689.3 452.3 713.7 446.7 738.2 447.7C762.7 448.7 787.3 456.3 812 462C836.7 467.7 861.3 471.3 886 468.8C910.7 466.3 935.3 457.7 947.7 453.3L960 449L960 541L947.7 541C935.3 541 910.7 541 886 541C861.3 541 836.7 541 812 541C787.3 541 762.7 541 738.2 541C713.7 541 689.3 541 664.8 541C640.3 541 615.7 541 591 541C566.3 541 541.7 541 517 541C492.3 541 467.7 541 443 541C418.3 541 393.7 541 369 541C344.3 541 319.7 541 295.2 541C270.7 541 246.3 541 221.8 541C197.3 541 172.7 541 148 541C123.3 541 98.7 541 74 541C49.3 541 24.7 541 12.3 541L0 541Z" fill="#8b4ff1"></path><path d="M0 466L12.3 471.5C24.7 477 49.3 488 74 491.5C98.7 495 123.3 491 148 494.2C172.7 497.3 197.3 507.7 221.8 513.2C246.3 518.7 270.7 519.3 295.2 516.7C319.7 514 344.3 508 369 503.7C393.7 499.3 418.3 496.7 443 498.7C467.7 500.7 492.3 507.3 517 510.8C541.7 514.3 566.3 514.7 591 509.7C615.7 504.7 640.3 494.3 664.8 488C689.3 481.7 713.7 479.3 738.2 483C762.7 486.7 787.3 496.3 812 495.3C836.7 494.3 861.3 482.7 886 481.5C910.7 480.3 935.3 489.7 947.7 494.3L960 499L960 541L947.7 541C935.3 541 910.7 541 886 541C861.3 541 836.7 541 812 541C787.3 541 762.7 541 738.2 541C713.7 541 689.3 541 664.8 541C640.3 541 615.7 541 591 541C566.3 541 541.7 541 517 541C492.3 541 467.7 541 443 541C418.3 541 393.7 541 369 541C344.3 541 319.7 541 295.2 541C270.7 541 246.3 541 221.8 541C197.3 541 172.7 541 148 541C123.3 541 98.7 541 74 541C49.3 541 24.7 541 12.3 541L0 541Z" fill="#444ffc"></path></svg>