<svg id="visual" viewBox="0 0 900 600" width="900" height="600" xmlns="http://www.w3.org/2000/svg" xmlns:xlink="http://www.w3.org/1999/xlink" version="1.1"><path d="M0 341L16.7 345.5C33.3 350 66.7 359 100 357.2C133.3 355.3 166.7 342.7 200 344C233.3 345.3 266.7 360.7 300 361.3C333.3 362 366.7 348 400 340C433.3 332 466.7 330 500 326.7C533.3 323.3 566.7 318.7 600 324.8C633.3 331 666.7 348 700 346C733.3 344 766.7 323 800 330.2C833.3 337.3 866.7 372.7 883.3 390.3L900 408L900 601L883.3 601C866.7 601 833.3 601 800 601C766.7 601 733.3 601 700 601C666.7 601 633.3 601 600 601C566.7 601 533.3 601 500 601C466.7 601 433.3 601 400 601C366.7 601 333.3 601 300 601C266.7 601 233.3 601 200 601C166.7 601 133.3 601 100 601C66.7 601 33.3 601 16.7 601L0 601Z" fill="#698cfa"></path><path d="M0 397L16.7 397C33.3 397 66.7 397 100 403.7C133.3 410.3 166.7 423.7 200 427.8C233.3 432 266.7 427 300 428.7C333.3 430.3 366.7 438.7 400 429.2C433.3 419.7 466.7 392.3 500 388.7C533.3 385 566.7 405 600 409.3C633.3 413.7 666.7 402.3 700 401.8C733.3 401.3 766.7 411.7 800 419.3C833.3 427 866.7 432 883.3 434.5L900 437L900 601L883.3 601C866.7 601 833.3 601 800 601C766.7 601 733.3 601 700 601C666.7 601 633.3 601 600 601C566.7 601 533.3 601 500 601C466.7 601 433.3 601 400 601C366.7 601 333.3 601 300 601C266.7 601 233.3 601 200 601C166.7 601 133.3 601 100 601C66.7 601 33.3 601 16.7 601L0 601Z" fill="#5778ee"></path><path d="M0 416L16.7 423.7C33.3 431.3 66.7 446.7 100 456.8C133.3 467 166.7 472 200 465.5C233.3 459 266.7 441 300 429.3C333.3 417.7 366.7 412.3 400 420.2C433.3 428 466.7 449 500 451.8C533.3 454.7 566.7 439.3 600 440.5C633.3 441.7 666.7 459.3 700 464.3C733.3 469.3 766.7 461.7 800 454.3C833.3 447 866.7 440 883.3 436.5L900 433L900 601L883.3 601C866.7 601 833.3 601 800 601C766.7 601 733.3 601 700 601C666.7 601 633.3 601 600 601C566.7 601 533.3 601 500 601C466.7 601 433.3 601 400 601C366.7 601 333.3 601 300 601C266.7 601 233.3 601 200 601C166.7 601 133.3 601 100 601C66.7 601 33.3 601 16.7 601L0 601Z" fill="#4663e2"></path><path d="M0 495L16.7 499C33.3 503 66.7 511 100 504.7C133.3 498.3 166.7 477.7 200 478C233.3 478.3 266.7 499.7 300 510.2C333.3 520.7 366.7 520.3 400 516C433.3 511.7 466.7 503.3 500 496.5C533.3 489.7 566.7 484.3 600 478.8C633.3 473.3 666.7 467.7 700 474.8C733.3 482 766.7 502 800 511.2C833.3 520.3 866.7 518.7 883.3 517.8L900 517L900 601L883.3 601C866.7 601 833.3 601 800 601C766.7 601 733.3 601 700 601C666.7 601 633.3 601 600 601C566.7 601 533.3 601 500 601C466.7 601 433.3 601 400 601C366.7 601 333.3 601 300 601C266.7 601 233.3 601 200 601C166.7 601 133.3 601 100 601C66.7 601 33.3 601 16.7 601L0 601Z" fill="#354ed5"></path><path d="M0 559L16.7 554.2C33.3 549.3 66.7 539.7 100 540.5C133.3 541.3 166.7 552.7 200 558.5C233.3 564.3 266.7 564.7 300 556.3C333.3 548 366.7 531 400 530.8C433.3 530.7 466.7 547.3 500 552.5C533.3 557.7 566.7 551.3 600 552C633.3 552.7 666.7 560.3 700 562.5C733.3 564.7 766.7 561.3 800 554.7C833.3 548 866.7 538 883.3 533L900 528L900 601L883.3 601C866.7 601 833.3 601 800 601C766.7 601 733.3 601 700 601C666.7 601 633.3 601 600 601C566.7 601 533.3 601 500 601C466.7 601 433.3 601 400 601C366.7 601 333.3 601 300 601C266.7 601 233.3 601 200 601C166.7 601 133.3 601 100 601C66.7 601 33.3 601 16.7 601L0 601Z" fill="#2438c7"></path></svg>