<svg id="visual" viewBox="0 0 900 600" width="900" height="600" xmlns="http://www.w3.org/2000/svg" xmlns:xlink="http://www.w3.org/1999/xlink" version="1.1"><path d="M0 387L16.7 377C33.3 367 66.7 347 100 347.7C133.3 348.3 166.7 369.7 200 368.8C233.3 368 266.7 345 300 339.2C333.3 333.3 366.7 344.7 400 347.7C433.3 350.7 466.7 345.3 500 355.5C533.3 365.7 566.7 391.3 600 404.2C633.3 417 666.7 417 700 399.5C733.3 382 766.7 347 800 340.7C833.3 334.3 866.7 356.7 883.3 367.8L900 379L900 601L883.3 601C866.7 601 833.3 601 800 601C766.7 601 733.3 601 700 601C666.7 601 633.3 601 600 601C566.7 601 533.3 601 500 601C466.7 601 433.3 601 400 601C366.7 601 333.3 601 300 601C266.7 601 233.3 601 200 601C166.7 601 133.3 601 100 601C66.7 601 33.3 601 16.7 601L0 601Z" fill="#698cfa"></path><path d="M0 421L16.7 422.2C33.3 423.3 66.7 425.7 100 422.8C133.3 420 166.7 412 200 414.2C233.3 416.3 266.7 428.7 300 422.3C333.3 416 366.7 391 400 389.8C433.3 388.7 466.7 411.3 500 417.2C533.3 423 566.7 412 600 400C633.3 388 666.7 375 700 373C733.3 371 766.7 380 800 391.3C833.3 402.7 866.7 416.3 883.3 423.2L900 430L900 601L883.3 601C866.7 601 833.3 601 800 601C766.7 601 733.3 601 700 601C666.7 601 633.3 601 600 601C566.7 601 533.3 601 500 601C466.7 601 433.3 601 400 601C366.7 601 333.3 601 300 601C266.7 601 233.3 601 200 601C166.7 601 133.3 601 100 601C66.7 601 33.3 601 16.7 601L0 601Z" fill="#5778ee"></path><path d="M0 472L16.7 469.8C33.3 467.7 66.7 463.3 100 454C133.3 444.7 166.7 430.3 200 425.2C233.3 420 266.7 424 300 432.7C333.3 441.3 366.7 454.7 400 464.2C433.3 473.7 466.7 479.3 500 482C533.3 484.7 566.7 484.3 600 479.5C633.3 474.7 666.7 465.3 700 464.7C733.3 464 766.7 472 800 464.8C833.3 457.7 866.7 435.3 883.3 424.2L900 413L900 601L883.3 601C866.7 601 833.3 601 800 601C766.7 601 733.3 601 700 601C666.7 601 633.3 601 600 601C566.7 601 533.3 601 500 601C466.7 601 433.3 601 400 601C366.7 601 333.3 601 300 601C266.7 601 233.3 601 200 601C166.7 601 133.3 601 100 601C66.7 601 33.3 601 16.7 601L0 601Z" fill="#4663e2"></path><path d="M0 479L16.7 480.3C33.3 481.7 66.7 484.3 100 492.2C133.3 500 166.7 513 200 511C233.3 509 266.7 492 300 491.5C333.3 491 366.7 507 400 506.7C433.3 506.3 466.7 489.7 500 490.3C533.3 491 566.7 509 600 515.3C633.3 521.7 666.7 516.3 700 512.3C733.3 508.3 766.7 505.7 800 497.2C833.3 488.7 866.7 474.3 883.3 467.2L900 460L900 601L883.3 601C866.7 601 833.3 601 800 601C766.7 601 733.3 601 700 601C666.7 601 633.3 601 600 601C566.7 601 533.3 601 500 601C466.7 601 433.3 601 400 601C366.7 601 333.3 601 300 601C266.7 601 233.3 601 200 601C166.7 601 133.3 601 100 601C66.7 601 33.3 601 16.7 601L0 601Z" fill="#354ed5"></path><path d="M0 536L16.7 539.2C33.3 542.3 66.7 548.7 100 550.2C133.3 551.7 166.7 548.3 200 547.5C233.3 546.7 266.7 548.3 300 551.3C333.3 554.3 366.7 558.7 400 552.3C433.3 546 466.7 529 500 523.5C533.3 518 566.7 524 600 533.2C633.3 542.3 666.7 554.7 700 552.7C733.3 550.7 766.7 534.3 800 530C833.3 525.7 866.7 533.3 883.3 537.2L900 541L900 601L883.3 601C866.7 601 833.3 601 800 601C766.7 601 733.3 601 700 601C666.7 601 633.3 601 600 601C566.7 601 533.3 601 500 601C466.7 601 433.3 601 400 601C366.7 601 333.3 601 300 601C266.7 601 233.3 601 200 601C166.7 601 133.3 601 100 601C66.7 601 33.3 601 16.7 601L0 601Z" fill="#2438c7"></path></svg>