<svg id="visual" viewBox="0 0 900 600" width="900" height="600" xmlns="http://www.w3.org/2000/svg" xmlns:xlink="http://www.w3.org/1999/xlink" version="1.1"><path d="M0 301L16.7 303.2C33.3 305.3 66.7 309.7 100 312.8C133.3 316 166.7 318 200 328C233.3 338 266.7 356 300 362C333.3 368 366.7 362 400 362.5C433.3 363 466.7 370 500 361.3C533.3 352.7 566.7 328.3 600 330C633.3 331.7 666.7 359.3 700 377.2C733.3 395 766.7 403 800 400.2C833.3 397.3 866.7 383.7 883.3 376.8L900 370L900 601L883.3 601C866.7 601 833.3 601 800 601C766.7 601 733.3 601 700 601C666.7 601 633.3 601 600 601C566.7 601 533.3 601 500 601C466.7 601 433.3 601 400 601C366.7 601 333.3 601 300 601C266.7 601 233.3 601 200 601C166.7 601 133.3 601 100 601C66.7 601 33.3 601 16.7 601L0 601Z" fill="#698cfa"></path><path d="M0 409L16.7 404.3C33.3 399.7 66.7 390.3 100 389C133.3 387.7 166.7 394.3 200 401.5C233.3 408.7 266.7 416.3 300 422C333.3 427.7 366.7 431.3 400 419.3C433.3 407.3 466.7 379.7 500 367.3C533.3 355 566.7 358 600 366.7C633.3 375.3 666.7 389.7 700 399.3C733.3 409 766.7 414 800 417.5C833.3 421 866.7 423 883.3 424L900 425L900 601L883.3 601C866.7 601 833.3 601 800 601C766.7 601 733.3 601 700 601C666.7 601 633.3 601 600 601C566.7 601 533.3 601 500 601C466.7 601 433.3 601 400 601C366.7 601 333.3 601 300 601C266.7 601 233.3 601 200 601C166.7 601 133.3 601 100 601C66.7 601 33.3 601 16.7 601L0 601Z" fill="#5778ee"></path><path d="M0 470L16.7 461.8C33.3 453.7 66.7 437.3 100 440.8C133.3 444.3 166.7 467.7 200 472.8C233.3 478 266.7 465 300 456.8C333.3 448.7 366.7 445.3 400 441C433.3 436.7 466.7 431.3 500 436.2C533.3 441 566.7 456 600 459.2C633.3 462.3 666.7 453.7 700 450C733.3 446.3 766.7 447.7 800 446.7C833.3 445.7 866.7 442.3 883.3 440.7L900 439L900 601L883.3 601C866.7 601 833.3 601 800 601C766.7 601 733.3 601 700 601C666.7 601 633.3 601 600 601C566.7 601 533.3 601 500 601C466.7 601 433.3 601 400 601C366.7 601 333.3 601 300 601C266.7 601 233.3 601 200 601C166.7 601 133.3 601 100 601C66.7 601 33.3 601 16.7 601L0 601Z" fill="#4663e2"></path><path d="M0 504L16.7 504.7C33.3 505.3 66.7 506.7 100 501C133.3 495.3 166.7 482.7 200 483.5C233.3 484.3 266.7 498.7 300 498.3C333.3 498 366.7 483 400 478.3C433.3 473.7 466.7 479.3 500 483.8C533.3 488.3 566.7 491.7 600 498.5C633.3 505.3 666.7 515.7 700 517C733.3 518.3 766.7 510.7 800 511C833.3 511.3 866.7 519.7 883.3 523.8L900 528L900 601L883.3 601C866.7 601 833.3 601 800 601C766.7 601 733.3 601 700 601C666.7 601 633.3 601 600 601C566.7 601 533.3 601 500 601C466.7 601 433.3 601 400 601C366.7 601 333.3 601 300 601C266.7 601 233.3 601 200 601C166.7 601 133.3 601 100 601C66.7 601 33.3 601 16.7 601L0 601Z" fill="#354ed5"></path><path d="M0 537L16.7 534.5C33.3 532 66.7 527 100 527C133.3 527 166.7 532 200 532.5C233.3 533 266.7 529 300 526.8C333.3 524.7 366.7 524.3 400 528.2C433.3 532 466.7 540 500 540.3C533.3 540.7 566.7 533.3 600 530.3C633.3 527.3 666.7 528.7 700 527.5C733.3 526.3 766.7 522.7 800 519.7C833.3 516.7 866.7 514.3 883.3 513.2L900 512L900 601L883.3 601C866.7 601 833.3 601 800 601C766.7 601 733.3 601 700 601C666.7 601 633.3 601 600 601C566.7 601 533.3 601 500 601C466.7 601 433.3 601 400 601C366.7 601 333.3 601 300 601C266.7 601 233.3 601 200 601C166.7 601 133.3 601 100 601C66.7 601 33.3 601 16.7 601L0 601Z" fill="#2438c7"></path></svg>