<svg id="visual" viewBox="0 0 900 600" width="900" height="600" xmlns="http://www.w3.org/2000/svg" xmlns:xlink="http://www.w3.org/1999/xlink" version="1.1"><path d="M0 301L16.7 317.7C33.3 334.3 66.7 367.7 100 368.5C133.3 369.3 166.7 337.7 200 333.3C233.3 329 266.7 352 300 365C333.3 378 366.7 381 400 378C433.3 375 466.7 366 500 361C533.3 356 566.7 355 600 363.5C633.3 372 666.7 390 700 390.3C733.3 390.7 766.7 373.3 800 374.5C833.3 375.7 866.7 395.3 883.3 405.2L900 415L900 601L883.3 601C866.7 601 833.3 601 800 601C766.7 601 733.3 601 700 601C666.7 601 633.3 601 600 601C566.7 601 533.3 601 500 601C466.7 601 433.3 601 400 601C366.7 601 333.3 601 300 601C266.7 601 233.3 601 200 601C166.7 601 133.3 601 100 601C66.7 601 33.3 601 16.7 601L0 601Z" fill="#698cfa"></path><path d="M0 417L16.7 409C33.3 401 66.7 385 100 379.3C133.3 373.7 166.7 378.3 200 379.5C233.3 380.7 266.7 378.3 300 385.8C333.3 393.3 366.7 410.7 400 416.3C433.3 422 466.7 416 500 409.5C533.3 403 566.7 396 600 389.8C633.3 383.7 666.7 378.3 700 387.3C733.3 396.3 766.7 419.7 800 416.7C833.3 413.7 866.7 384.3 883.3 369.7L900 355L900 601L883.3 601C866.7 601 833.3 601 800 601C766.7 601 733.3 601 700 601C666.7 601 633.3 601 600 601C566.7 601 533.3 601 500 601C466.7 601 433.3 601 400 601C366.7 601 333.3 601 300 601C266.7 601 233.3 601 200 601C166.7 601 133.3 601 100 601C66.7 601 33.3 601 16.7 601L0 601Z" fill="#5778ee"></path><path d="M0 430L16.7 440.5C33.3 451 66.7 472 100 477.8C133.3 483.7 166.7 474.3 200 472.7C233.3 471 266.7 477 300 477.2C333.3 477.3 366.7 471.7 400 461.8C433.3 452 466.7 438 500 434.8C533.3 431.7 566.7 439.3 600 440.8C633.3 442.3 666.7 437.7 700 440C733.3 442.3 766.7 451.7 800 461.3C833.3 471 866.7 481 883.3 486L900 491L900 601L883.3 601C866.7 601 833.3 601 800 601C766.7 601 733.3 601 700 601C666.7 601 633.3 601 600 601C566.7 601 533.3 601 500 601C466.7 601 433.3 601 400 601C366.7 601 333.3 601 300 601C266.7 601 233.3 601 200 601C166.7 601 133.3 601 100 601C66.7 601 33.3 601 16.7 601L0 601Z" fill="#4663e2"></path><path d="M0 473L16.7 473C33.3 473 66.7 473 100 475C133.3 477 166.7 481 200 486.8C233.3 492.7 266.7 500.3 300 503C333.3 505.7 366.7 503.3 400 506C433.3 508.7 466.7 516.3 500 516.5C533.3 516.7 566.7 509.3 600 504C633.3 498.7 666.7 495.3 700 493.3C733.3 491.3 766.7 490.7 800 489C833.3 487.3 866.7 484.7 883.3 483.3L900 482L900 601L883.3 601C866.7 601 833.3 601 800 601C766.7 601 733.3 601 700 601C666.7 601 633.3 601 600 601C566.7 601 533.3 601 500 601C466.7 601 433.3 601 400 601C366.7 601 333.3 601 300 601C266.7 601 233.3 601 200 601C166.7 601 133.3 601 100 601C66.7 601 33.3 601 16.7 601L0 601Z" fill="#354ed5"></path><path d="M0 539L16.7 540.2C33.3 541.3 66.7 543.7 100 543.3C133.3 543 166.7 540 200 537.8C233.3 535.7 266.7 534.3 300 536.8C333.3 539.3 366.7 545.7 400 541.8C433.3 538 466.7 524 500 521.7C533.3 519.3 566.7 528.7 600 530.5C633.3 532.3 666.7 526.7 700 523.7C733.3 520.7 766.7 520.3 800 527.5C833.3 534.7 866.7 549.3 883.3 556.7L900 564L900 601L883.3 601C866.7 601 833.3 601 800 601C766.7 601 733.3 601 700 601C666.7 601 633.3 601 600 601C566.7 601 533.3 601 500 601C466.7 601 433.3 601 400 601C366.7 601 333.3 601 300 601C266.7 601 233.3 601 200 601C166.7 601 133.3 601 100 601C66.7 601 33.3 601 16.7 601L0 601Z" fill="#2438c7"></path></svg>