<svg id="visual" viewBox="0 0 900 600" width="900" height="600" xmlns="http://www.w3.org/2000/svg" xmlns:xlink="http://www.w3.org/1999/xlink" version="1.1"><path d="M0 354L16.7 345C33.3 336 66.7 318 100 327C133.3 336 166.7 372 200 375C233.3 378 266.7 348 300 348.8C333.3 349.7 366.7 381.3 400 389.5C433.3 397.7 466.7 382.3 500 366.3C533.3 350.3 566.7 333.7 600 342C633.3 350.3 666.7 383.7 700 387.2C733.3 390.7 766.7 364.3 800 350C833.3 335.7 866.7 333.3 883.3 332.2L900 331L900 601L883.3 601C866.7 601 833.3 601 800 601C766.7 601 733.3 601 700 601C666.7 601 633.3 601 600 601C566.7 601 533.3 601 500 601C466.7 601 433.3 601 400 601C366.7 601 333.3 601 300 601C266.7 601 233.3 601 200 601C166.7 601 133.3 601 100 601C66.7 601 33.3 601 16.7 601L0 601Z" fill="#698cfa"></path><path d="M0 444L16.7 434C33.3 424 66.7 404 100 405.7C133.3 407.3 166.7 430.7 200 426C233.3 421.3 266.7 388.7 300 374C333.3 359.3 366.7 362.7 400 369.3C433.3 376 466.7 386 500 393.7C533.3 401.3 566.7 406.7 600 408.5C633.3 410.3 666.7 408.7 700 408.3C733.3 408 766.7 409 800 412.7C833.3 416.3 866.7 422.7 883.3 425.8L900 429L900 601L883.3 601C866.7 601 833.3 601 800 601C766.7 601 733.3 601 700 601C666.7 601 633.3 601 600 601C566.7 601 533.3 601 500 601C466.7 601 433.3 601 400 601C366.7 601 333.3 601 300 601C266.7 601 233.3 601 200 601C166.7 601 133.3 601 100 601C66.7 601 33.3 601 16.7 601L0 601Z" fill="#5778ee"></path><path d="M0 457L16.7 461.8C33.3 466.7 66.7 476.3 100 482C133.3 487.7 166.7 489.3 200 480.8C233.3 472.3 266.7 453.7 300 453C333.3 452.3 366.7 469.7 400 475.3C433.3 481 466.7 475 500 461.8C533.3 448.7 566.7 428.3 600 420.2C633.3 412 666.7 416 700 419.5C733.3 423 766.7 426 800 437.7C833.3 449.3 866.7 469.7 883.3 479.8L900 490L900 601L883.3 601C866.7 601 833.3 601 800 601C766.7 601 733.3 601 700 601C666.7 601 633.3 601 600 601C566.7 601 533.3 601 500 601C466.7 601 433.3 601 400 601C366.7 601 333.3 601 300 601C266.7 601 233.3 601 200 601C166.7 601 133.3 601 100 601C66.7 601 33.3 601 16.7 601L0 601Z" fill="#4663e2"></path><path d="M0 478L16.7 476.2C33.3 474.3 66.7 470.7 100 471.2C133.3 471.7 166.7 476.3 200 482.5C233.3 488.7 266.7 496.3 300 495C333.3 493.7 366.7 483.3 400 481C433.3 478.7 466.7 484.3 500 482.5C533.3 480.7 566.7 471.3 600 466.7C633.3 462 666.7 462 700 461.3C733.3 460.7 766.7 459.3 800 462.5C833.3 465.7 866.7 473.3 883.3 477.2L900 481L900 601L883.3 601C866.7 601 833.3 601 800 601C766.7 601 733.3 601 700 601C666.7 601 633.3 601 600 601C566.7 601 533.3 601 500 601C466.7 601 433.3 601 400 601C366.7 601 333.3 601 300 601C266.7 601 233.3 601 200 601C166.7 601 133.3 601 100 601C66.7 601 33.3 601 16.7 601L0 601Z" fill="#354ed5"></path><path d="M0 544L16.7 545.5C33.3 547 66.7 550 100 552.8C133.3 555.7 166.7 558.3 200 555.8C233.3 553.3 266.7 545.7 300 537.7C333.3 529.7 366.7 521.3 400 516.7C433.3 512 466.7 511 500 511.5C533.3 512 566.7 514 600 518.5C633.3 523 666.7 530 700 538.7C733.3 547.3 766.7 557.7 800 561.8C833.3 566 866.7 564 883.3 563L900 562L900 601L883.3 601C866.7 601 833.3 601 800 601C766.7 601 733.3 601 700 601C666.7 601 633.3 601 600 601C566.7 601 533.3 601 500 601C466.7 601 433.3 601 400 601C366.7 601 333.3 601 300 601C266.7 601 233.3 601 200 601C166.7 601 133.3 601 100 601C66.7 601 33.3 601 16.7 601L0 601Z" fill="#2438c7"></path></svg>