<svg id="visual" viewBox="0 0 900 600" width="900" height="600" xmlns="http://www.w3.org/2000/svg" xmlns:xlink="http://www.w3.org/1999/xlink" version="1.1"><path d="M0 396L16.7 387.3C33.3 378.7 66.7 361.3 100 354.8C133.3 348.3 166.7 352.7 200 363.5C233.3 374.3 266.7 391.7 300 401.5C333.3 411.3 366.7 413.7 400 412.7C433.3 411.7 466.7 407.3 500 397.7C533.3 388 566.7 373 600 359.8C633.3 346.7 666.7 335.3 700 343.2C733.3 351 766.7 378 800 393.5C833.3 409 866.7 413 883.3 415L900 417L900 601L883.3 601C866.7 601 833.3 601 800 601C766.7 601 733.3 601 700 601C666.7 601 633.3 601 600 601C566.7 601 533.3 601 500 601C466.7 601 433.3 601 400 601C366.7 601 333.3 601 300 601C266.7 601 233.3 601 200 601C166.7 601 133.3 601 100 601C66.7 601 33.3 601 16.7 601L0 601Z" fill="#698cfa"></path><path d="M0 383L16.7 384.7C33.3 386.3 66.7 389.7 100 395.2C133.3 400.7 166.7 408.3 200 413.5C233.3 418.7 266.7 421.3 300 414.7C333.3 408 366.7 392 400 391.5C433.3 391 466.7 406 500 413.7C533.3 421.3 566.7 421.7 600 423.3C633.3 425 666.7 428 700 422.3C733.3 416.7 766.7 402.3 800 402.5C833.3 402.7 866.7 417.3 883.3 424.7L900 432L900 601L883.3 601C866.7 601 833.3 601 800 601C766.7 601 733.3 601 700 601C666.7 601 633.3 601 600 601C566.7 601 533.3 601 500 601C466.7 601 433.3 601 400 601C366.7 601 333.3 601 300 601C266.7 601 233.3 601 200 601C166.7 601 133.3 601 100 601C66.7 601 33.3 601 16.7 601L0 601Z" fill="#5778ee"></path><path d="M0 428L16.7 435C33.3 442 66.7 456 100 452.3C133.3 448.7 166.7 427.3 200 423.3C233.3 419.3 266.7 432.7 300 444.5C333.3 456.3 366.7 466.7 400 471C433.3 475.3 466.7 473.7 500 468.2C533.3 462.7 566.7 453.3 600 443.7C633.3 434 666.7 424 700 422.8C733.3 421.7 766.7 429.3 800 435C833.3 440.7 866.7 444.3 883.3 446.2L900 448L900 601L883.3 601C866.7 601 833.3 601 800 601C766.7 601 733.3 601 700 601C666.7 601 633.3 601 600 601C566.7 601 533.3 601 500 601C466.7 601 433.3 601 400 601C366.7 601 333.3 601 300 601C266.7 601 233.3 601 200 601C166.7 601 133.3 601 100 601C66.7 601 33.3 601 16.7 601L0 601Z" fill="#4663e2"></path><path d="M0 458L16.7 470.2C33.3 482.3 66.7 506.7 100 511C133.3 515.3 166.7 499.7 200 495.7C233.3 491.7 266.7 499.3 300 500.3C333.3 501.3 366.7 495.7 400 489.7C433.3 483.7 466.7 477.3 500 476.3C533.3 475.3 566.7 479.7 600 486.5C633.3 493.3 666.7 502.7 700 502.8C733.3 503 766.7 494 800 488.8C833.3 483.7 866.7 482.3 883.3 481.7L900 481L900 601L883.3 601C866.7 601 833.3 601 800 601C766.7 601 733.3 601 700 601C666.7 601 633.3 601 600 601C566.7 601 533.3 601 500 601C466.7 601 433.3 601 400 601C366.7 601 333.3 601 300 601C266.7 601 233.3 601 200 601C166.7 601 133.3 601 100 601C66.7 601 33.3 601 16.7 601L0 601Z" fill="#354ed5"></path><path d="M0 523L16.7 526.8C33.3 530.7 66.7 538.3 100 544.7C133.3 551 166.7 556 200 551C233.3 546 266.7 531 300 529.7C333.3 528.3 366.7 540.7 400 546.2C433.3 551.7 466.7 550.3 500 546.7C533.3 543 566.7 537 600 539.7C633.3 542.3 666.7 553.7 700 553.7C733.3 553.7 766.7 542.3 800 538.8C833.3 535.3 866.7 539.7 883.3 541.8L900 544L900 601L883.3 601C866.7 601 833.3 601 800 601C766.7 601 733.3 601 700 601C666.7 601 633.3 601 600 601C566.7 601 533.3 601 500 601C466.7 601 433.3 601 400 601C366.7 601 333.3 601 300 601C266.7 601 233.3 601 200 601C166.7 601 133.3 601 100 601C66.7 601 33.3 601 16.7 601L0 601Z" fill="#2438c7"></path></svg>